#Comment line ignore any data following # character 
#Hierarchical Translation and Rotation (.htr) file 
[Header]	
#Header keywords are followed by a single value 
FileType HTR		#Single word string
DataType HTRS		#Translation followed by rotation and scale data
FileVersion 1		#integer
NumSegments 84		#integer
NumFrames 2		#integer
DataFrameRate 30		#integer, data frame rate in this file
EulerRotationOrder ZYX
CalibrationUnits mm
RotationUnits Degrees
GlobalAxisofGravity Y
BoneLengthAxis Y
ScaleFactor 1.00
[SegmentNames&Hierarchy]
#CHILD	PARENT
MASTER GLOBAL
root MASTER
chest root
L_mid_tent01 root
R_mid_tent01 root
spine01 root
Bip01_Neck chest
L_humerus chest
R_humerus chest
weapon_bone chest
Bip01_Head Bip01_Neck
eye_left_bone Bip01_Head
eye_right_bone Bip01_Head
L_forearm L_humerus
L_front_hand L_forearm
L_weapon_bone L_forearm
L_front_hand01_01 L_front_hand
L_front_hand02_01 L_front_hand
L_front_hand03_01 L_front_hand
L_front_hand01_02 L_front_hand01_01
L_front_hand02_02 L_front_hand02_01
L_front_hand03_02 L_front_hand03_01
R_forearm R_humerus
R_front_hand R_forearm
R_weapon_bone R_forearm
R_front_hand01_01 R_front_hand
R_front_hand02_01 R_front_hand
R_front_hand03_01 R_front_hand
R_front_hand01_02 R_front_hand01_01
R_front_hand02_02 R_front_hand02_01
R_front_hand03_02 R_front_hand03_01
null_rope01_connect L_mid_tent01
Rope1_Seg01 null_rope01_connect
Rope1_Seg02 Rope1_Seg01
Rope1_Seg03 Rope1_Seg02
Rope1_Seg04 Rope1_Seg03
Rope1_Seg05 Rope1_Seg04
Rope1_Seg06 Rope1_Seg05
Rope1_Seg07 Rope1_Seg06
Rope1_Seg09 Rope1_Seg07
L_mid_hand01 Rope1_Seg09
L_mid_hand02 Rope1_Seg09
L_mid_hand03 Rope1_Seg09
null_rope02_connect R_mid_tent01
Rope2_Seg01 null_rope02_connect
Rope2_Seg02 Rope2_Seg01
Rope2_Seg03 Rope2_Seg02
Rope2_Seg04 Rope2_Seg03
Rope2_Seg05 Rope2_Seg04
Rope2_Seg06 Rope2_Seg05
Rope2_Seg07 Rope2_Seg06
Rope2_Seg09 Rope2_Seg07
R_mid_hand01 Rope2_Seg09
R_mid_hand02 Rope2_Seg09
R_mid_hand03 Rope2_Seg09
spine02 spine01
spine03 spine02
pelvis spine03
null_rope03_connect pelvis
null_rope04_connect pelvis
Rope3_Seg01 null_rope03_connect
Rope3_Seg02 Rope3_Seg01
Rope3_Seg03 Rope3_Seg02
Rope3_Seg04 Rope3_Seg03
Rope3_Seg05 Rope3_Seg04
Rope3_Seg06 Rope3_Seg05
Rope3_Seg07 Rope3_Seg06
Rope3_Seg08 Rope3_Seg07
Rope3_Seg09 Rope3_Seg08
R_rear_hand01 Rope3_Seg09
R_rear_hand02 Rope3_Seg09
R_rear_hand03 Rope3_Seg09
Rope4_Seg01 null_rope04_connect
Rope4_Seg02 Rope4_Seg01
Rope4_Seg03 Rope4_Seg02
Rope4_Seg04 Rope4_Seg03
Rope4_Seg05 Rope4_Seg04
Rope4_Seg06 Rope4_Seg05
Rope4_Seg07 Rope4_Seg06
Rope4_Seg08 Rope4_Seg07
Rope4_Seg09 Rope4_Seg08
L_rear_hand01 Rope4_Seg09
L_rear_hand02 Rope4_Seg09
L_rear_hand03 Rope4_Seg09
[BasePosition]
#SegmentName Tx, Ty, Tz, Rx, Ry, Rz, BoneLength
MASTER 0.000000 0.000000 0.000000 -90.000000 0.000000 0.000000 10.000000 
root 0.000000 0.000000 0.000000 0.000000 0.000000 0.000000 10.000000 
chest 0.000000 0.000000 0.000000 0.000000 0.000000 0.000000 10.000000 
L_mid_tent01 0.000000 0.000000 0.000000 0.000000 0.000000 0.000000 10.000000 
R_mid_tent01 0.000000 0.000000 0.000000 0.000000 0.000000 0.000000 10.000000 
spine01 0.000000 0.000000 0.000000 0.000000 0.000000 0.000000 10.000000 
Bip01_Neck 0.000000 0.000000 0.000000 0.000000 0.000000 0.000000 10.000000 
L_humerus 0.000000 0.000000 0.000000 0.000000 0.000000 0.000000 10.000000 
R_humerus 0.000000 0.000000 0.000000 0.000000 0.000000 0.000000 10.000000 
weapon_bone 0.000000 0.000000 0.000000 0.000000 0.000000 0.000000 10.000000 
Bip01_Head 0.000000 0.000000 0.000000 0.000000 0.000000 0.000000 10.000000 
eye_left_bone 0.000000 0.000000 0.000000 0.000000 0.000000 0.000000 10.000000 
eye_right_bone 0.000000 0.000000 0.000000 0.000000 0.000000 0.000000 10.000000 
L_forearm 0.000000 0.000000 0.000000 0.000000 0.000000 0.000000 10.000000 
L_front_hand 0.000000 0.000000 0.000000 0.000000 0.000000 0.000000 10.000000 
L_weapon_bone 0.000000 0.000000 0.000000 0.000000 0.000000 0.000000 10.000000 
L_front_hand01_01 0.000000 0.000000 0.000000 0.000000 0.000000 0.000000 10.000000 
L_front_hand02_01 0.000000 0.000000 0.000000 0.000000 0.000000 0.000000 10.000000 
L_front_hand03_01 0.000000 0.000000 0.000000 0.000000 0.000000 0.000000 10.000000 
L_front_hand01_02 0.000000 0.000000 0.000000 0.000000 0.000000 0.000000 10.000000 
L_front_hand02_02 0.000000 0.000000 0.000000 0.000000 0.000000 0.000000 10.000000 
L_front_hand03_02 0.000000 0.000000 0.000000 0.000000 0.000000 0.000000 10.000000 
R_forearm 0.000000 0.000000 0.000000 0.000000 0.000000 0.000000 10.000000 
R_front_hand 0.000000 0.000000 0.000000 0.000000 0.000000 0.000000 10.000000 
R_weapon_bone 0.000000 0.000000 0.000000 0.000000 0.000000 0.000000 10.000000 
R_front_hand01_01 0.000000 0.000000 0.000000 0.000000 0.000000 0.000000 10.000000 
R_front_hand02_01 0.000000 0.000000 0.000000 0.000000 0.000000 0.000000 10.000000 
R_front_hand03_01 0.000000 0.000000 0.000000 0.000000 0.000000 0.000000 10.000000 
R_front_hand01_02 0.000000 0.000000 0.000000 0.000000 0.000000 0.000000 10.000000 
R_front_hand02_02 0.000000 0.000000 0.000000 0.000000 0.000000 0.000000 10.000000 
R_front_hand03_02 0.000000 0.000000 0.000000 0.000000 0.000000 0.000000 10.000000 
null_rope01_connect 0.000000 0.000000 0.000000 0.000000 0.000000 0.000000 10.000000 
Rope1_Seg01 0.000000 0.000000 0.000000 0.000000 0.000000 0.000000 10.000000 
Rope1_Seg02 0.000000 0.000000 0.000000 0.000000 0.000000 0.000000 10.000000 
Rope1_Seg03 0.000000 0.000000 0.000000 0.000000 0.000000 0.000000 10.000000 
Rope1_Seg04 0.000000 0.000000 0.000000 0.000000 0.000000 0.000000 10.000000 
Rope1_Seg05 0.000000 0.000000 0.000000 0.000000 0.000000 0.000000 10.000000 
Rope1_Seg06 0.000000 0.000000 0.000000 0.000000 0.000000 0.000000 10.000000 
Rope1_Seg07 0.000000 0.000000 0.000000 0.000000 0.000000 0.000000 10.000000 
Rope1_Seg09 0.000000 0.000000 0.000000 0.000000 0.000000 0.000000 10.000000 
L_mid_hand01 0.000000 0.000000 0.000000 0.000000 0.000000 0.000000 10.000000 
L_mid_hand02 0.000000 0.000000 0.000000 0.000000 0.000000 0.000000 10.000000 
L_mid_hand03 0.000000 0.000000 0.000000 0.000000 0.000000 0.000000 10.000000 
null_rope02_connect 0.000000 0.000000 0.000000 0.000000 0.000000 0.000000 10.000000 
Rope2_Seg01 0.000000 0.000000 0.000000 0.000000 0.000000 0.000000 10.000000 
Rope2_Seg02 0.000000 0.000000 0.000000 0.000000 0.000000 0.000000 10.000000 
Rope2_Seg03 0.000000 0.000000 0.000000 0.000000 0.000000 0.000000 10.000000 
Rope2_Seg04 0.000000 0.000000 0.000000 0.000000 0.000000 0.000000 10.000000 
Rope2_Seg05 0.000000 0.000000 0.000000 0.000000 0.000000 0.000000 10.000000 
Rope2_Seg06 0.000000 0.000000 0.000000 0.000000 0.000000 0.000000 10.000000 
Rope2_Seg07 0.000000 0.000000 0.000000 0.000000 0.000000 0.000000 10.000000 
Rope2_Seg09 0.000000 0.000000 0.000000 0.000000 0.000000 0.000000 10.000000 
R_mid_hand01 0.000000 0.000000 0.000000 0.000000 0.000000 0.000000 10.000000 
R_mid_hand02 0.000000 0.000000 0.000000 0.000000 0.000000 0.000000 10.000000 
R_mid_hand03 0.000000 0.000000 0.000000 0.000000 0.000000 0.000000 10.000000 
spine02 0.000000 0.000000 0.000000 0.000000 0.000000 0.000000 10.000000 
spine03 0.000000 0.000000 0.000000 0.000000 0.000000 0.000000 10.000000 
pelvis 0.000000 0.000000 0.000000 0.000000 0.000000 0.000000 10.000000 
null_rope03_connect 0.000000 0.000000 0.000000 0.000000 0.000000 0.000000 10.000000 
null_rope04_connect 0.000000 0.000000 0.000000 0.000000 0.000000 0.000000 10.000000 
Rope3_Seg01 0.000000 0.000000 0.000000 0.000000 0.000000 0.000000 10.000000 
Rope3_Seg02 0.000000 0.000000 0.000000 0.000000 0.000000 0.000000 10.000000 
Rope3_Seg03 0.000000 0.000000 0.000000 0.000000 0.000000 0.000000 10.000000 
Rope3_Seg04 0.000000 0.000000 0.000000 0.000000 0.000000 0.000000 10.000000 
Rope3_Seg05 0.000000 0.000000 0.000000 0.000000 0.000000 0.000000 10.000000 
Rope3_Seg06 0.000000 0.000000 0.000000 0.000000 0.000000 0.000000 10.000000 
Rope3_Seg07 0.000000 0.000000 0.000000 0.000000 0.000000 0.000000 10.000000 
Rope3_Seg08 0.000000 0.000000 0.000000 0.000000 0.000000 0.000000 10.000000 
Rope3_Seg09 0.000000 0.000000 0.000000 0.000000 0.000000 0.000000 10.000000 
R_rear_hand01 0.000000 0.000000 0.000000 0.000000 0.000000 0.000000 10.000000 
R_rear_hand02 0.000000 0.000000 0.000000 0.000000 0.000000 0.000000 10.000000 
R_rear_hand03 0.000000 0.000000 0.000000 0.000000 0.000000 0.000000 10.000000 
Rope4_Seg01 0.000000 0.000000 0.000000 0.000000 0.000000 0.000000 10.000000 
Rope4_Seg02 0.000000 0.000000 0.000000 0.000000 0.000000 0.000000 10.000000 
Rope4_Seg03 0.000000 0.000000 0.000000 0.000000 0.000000 0.000000 10.000000 
Rope4_Seg04 0.000000 0.000000 0.000000 0.000000 0.000000 0.000000 10.000000 
Rope4_Seg05 0.000000 0.000000 0.000000 0.000000 0.000000 0.000000 10.000000 
Rope4_Seg06 0.000000 0.000000 0.000000 0.000000 0.000000 0.000000 10.000000 
Rope4_Seg07 0.000000 0.000000 0.000000 0.000000 0.000000 0.000000 10.000000 
Rope4_Seg08 0.000000 0.000000 0.000000 0.000000 0.000000 0.000000 10.000000 
Rope4_Seg09 0.000000 0.000000 0.000000 0.000000 0.000000 0.000000 10.000000 
L_rear_hand01 0.000000 0.000000 0.000000 0.000000 0.000000 0.000000 10.000000 
L_rear_hand02 0.000000 0.000000 0.000000 0.000000 0.000000 0.000000 10.000000 
L_rear_hand03 0.000000 0.000000 0.000000 0.000000 0.000000 0.000000 10.000000 
#Beginning of Data. Separated by tabs
#Fr	Tx	Ty	Tz	Rx	Ry	Rz	SF
[MASTER]
34 -1354.124390 163.131348 1515.048706 0.001660 0.001660 0.001660 2038.538086
35 -1354.124390 163.131348 1515.048706 0.001660 0.001660 0.001660 2038.538086
[root]
34 20.013123 -118.897354 462.015350 -167.768173 -12.521735 -68.984413 477.488556
35 20.013123 -118.897354 462.015350 -168.191681 -12.383240 -68.937637 477.488556
[chest]
34 -84.512650 -34.090519 0.000000 -44.197418 -27.528538 -175.235001 91.129311
35 -84.512650 -34.090519 0.000000 -47.266895 -28.211958 -173.662552 91.129311
[L_mid_tent01]
34 27.299175 22.179268 -249.918732 -5.607329 14.845684 56.804325 252.381729
35 27.299177 22.179272 -249.918732 -5.145389 14.837322 58.419079 252.381729
[R_mid_tent01]
34 23.228794 24.509907 226.238495 178.431335 -19.192533 32.655540 228.744751
35 23.228794 24.509907 226.238495 177.674850 -18.291365 33.905979 228.744751
[spine01]
34 -0.361383 -0.195265 0.000000 0.001954 0.001301 22.684557 0.410763
35 -0.361383 -0.195265 0.000000 0.001953 0.001302 22.645466 0.410763
[Bip01_Neck]
34 165.484543 71.581718 0.000119 176.643677 -1.657967 43.431911 180.302734
35 165.484543 71.581718 0.000119 176.643677 -1.657967 43.431911 180.302734
[L_humerus]
34 -13.983130 -135.272980 -120.471481 152.777267 70.613403 -115.367264 181.680161
35 -13.983130 -135.272980 -120.471481 153.235535 70.116829 -114.901871 181.680161
[R_humerus]
34 -13.983309 -135.273102 125.287651 -90.546921 -66.303200 -170.983795 184.909012
35 -13.983309 -135.273102 125.287651 -95.349472 -67.195374 -166.395432 184.909012
[weapon_bone]
34 235.964890 -300.705902 0.000000 0.000000 -89.951546 -128.212341 382.234833
35 235.964890 -300.705902 0.000000 0.000000 -89.951546 -128.212341 382.234833
[Bip01_Head]
34 213.351212 185.974518 8.433125 -0.393967 5.635245 -43.835587 283.154327
35 213.341949 186.000259 8.101144 1.045529 5.851741 -43.838158 283.154572
[eye_left_bone]
34 -24.626970 125.451866 -64.772606 0.000000 -90.000000 -99.840431 143.318359
35 -24.626970 125.451866 -64.772606 0.000000 -90.000000 -99.840431 143.318359
[eye_right_bone]
34 -24.626970 125.451866 64.327362 0.000000 -89.965736 80.156380 143.117676
35 -24.626970 125.451866 64.327362 0.000000 -89.965736 80.156380 143.117676
[L_forearm]
34 322.776093 0.000000 -0.000119 0.000244 -0.002334 -101.953453 322.776093
35 322.776093 0.000000 -0.000119 0.000252 -0.002334 -102.312241 322.776093
[L_front_hand]
34 241.149185 -0.042021 -3.300071 -105.490540 -1.835781 -27.423635 241.171753
35 241.149185 -0.042021 -3.300071 -105.490540 -1.835781 -27.423635 241.171753
[L_weapon_bone]
34 156.183838 0.000000 0.000000 0.000014 0.000007 0.000001 156.183838
35 156.183838 0.000000 0.000000 0.000014 0.000007 0.000001 156.183838
[L_front_hand01_01]
34 86.095154 20.947098 -0.655860 -0.366594 -0.477154 75.385574 88.609184
35 86.095154 20.947098 -0.655860 -0.366594 -0.477154 75.385574 88.609184
[L_front_hand02_01]
34 86.935165 -11.437475 24.513514 154.399796 -59.883835 -61.369587 91.046425
35 86.935165 -11.437475 24.513514 154.399796 -59.883835 -61.369587 91.046425
[L_front_hand03_01]
34 86.637497 -14.123976 -20.424902 -153.913849 58.118122 -62.702866 90.126129
35 86.637497 -14.123976 -20.424902 -153.913849 58.118122 -62.702866 90.126129
[L_front_hand01_02]
34 71.020905 -0.000179 0.000030 0.000334 -0.002323 -106.379684 71.020905
35 71.020905 -0.000179 0.000030 0.000334 -0.002323 -106.379684 71.020905
[L_front_hand02_02]
34 71.020927 -0.000119 0.000060 0.000334 -0.002323 -106.379684 71.020927
35 71.020927 -0.000119 0.000060 0.000334 -0.002323 -106.379684 71.020927
[L_front_hand03_02]
34 71.020905 -0.000060 0.000060 0.000334 -0.002323 -106.379684 71.020905
35 71.020905 -0.000060 0.000060 0.000334 -0.002323 -106.379684 71.020905
[R_forearm]
34 322.776428 -0.000060 0.000030 0.209767 0.035726 -100.542603 322.776428
35 322.776428 -0.000060 0.000030 0.208381 0.037432 -100.900108 322.776428
[R_front_hand]
34 238.847015 -0.006795 2.210259 -2.635298 -10.645461 -26.312506 238.857239
35 238.847015 -0.006795 2.210259 -2.635298 -10.645461 -26.312506 238.857239
[R_weapon_bone]
34 155.664093 0.002503 -0.000030 0.003487 0.001180 -90.988930 155.664078
35 155.664093 0.002503 -0.000030 0.003487 0.001180 -90.988930 155.664078
[R_front_hand01_01]
34 87.624611 14.231146 22.918642 -154.633499 -59.950619 61.746044 91.683487
35 87.624611 14.231146 22.918642 -154.633514 -59.950634 61.746063 91.683487
[R_front_hand02_01]
34 89.356956 14.367283 -19.491137 154.602661 58.302849 63.744389 92.579636
35 89.356956 14.367283 -19.491137 154.602661 58.302849 63.744389 92.579636
[R_front_hand03_01]
34 87.286232 -22.307278 -0.143439 0.162155 -0.423168 -75.767921 90.091743
35 87.286232 -22.307278 -0.143439 0.162155 -0.423168 -75.767921 90.091743
[R_front_hand01_02]
34 71.020905 0.000060 0.000119 0.002323 -0.000334 106.381714 71.020905
35 71.020905 0.000060 0.000119 0.002323 -0.000334 106.381714 71.020905
[R_front_hand02_02]
34 71.020844 -0.000030 -0.000119 0.002323 -0.000334 106.381714 71.020836
35 71.020844 -0.000030 -0.000119 0.002323 -0.000334 106.381714 71.020836
[R_front_hand03_02]
34 71.020905 0.000000 0.000030 0.002323 -0.000334 106.381714 71.020905
35 71.020905 0.000000 0.000030 0.002323 -0.000334 106.381714 71.020905
[null_rope01_connect]
34 328.732483 0.000000 -0.000238 -164.030640 -2.552230 -127.592484 328.732483
35 328.732483 0.000000 -0.000238 -164.106689 -2.255139 -129.069107 328.732483
[Rope1_Seg01]
34 0.000144 -0.000074 0.000009 65.701897 -63.950802 40.699993 0.000162
35 0.000148 -0.000075 0.000004 69.006508 -63.630493 37.020638 0.000166
[Rope1_Seg02]
34 139.999863 -0.000179 0.000000 0.128405 6.399457 4.304456 139.999863
35 139.999863 -0.000179 0.000000 0.164791 6.274189 4.330830 139.999863
[Rope1_Seg03]
34 139.999924 0.000060 -0.000060 0.248424 11.660064 7.967763 139.999924
35 139.999924 0.000060 -0.000060 0.359994 11.563153 8.102759 139.999924
[Rope1_Seg04]
34 139.999924 -0.000060 -0.000119 1.235543 26.505672 18.324308 139.999924
35 139.999924 -0.000060 -0.000119 1.799691 26.787752 19.215336 139.999924
[Rope1_Seg05]
34 139.999832 0.000119 -0.000060 -0.658587 21.857819 17.982712 139.999832
35 139.999832 0.000119 -0.000060 -0.112504 22.941307 18.928900 139.999832
[Rope1_Seg06]
34 139.999954 0.000119 -0.000060 -0.583481 0.499875 9.153630 139.999954
35 139.999954 0.000119 -0.000060 -0.495822 0.472571 7.988564 139.999954
[Rope1_Seg07]
34 139.999985 0.000060 0.000000 0.573554 1.952246 13.053731 139.999985
35 139.999985 0.000060 0.000000 0.301029 0.702051 11.501984 139.999985
[Rope1_Seg09]
34 121.602913 0.000119 -0.000089 -89.793175 -1.359789 0.847147 121.602913
35 121.602913 0.000119 -0.000089 -89.793175 -1.359789 0.847147 121.602913
[L_mid_hand01]
34 103.859421 1.038730 8.195221 130.544373 -67.584534 -38.866943 104.187431
35 103.859421 1.038730 8.195221 130.544373 -67.584534 -38.866943 104.187431
[L_mid_hand02]
34 105.572853 -4.139662 -10.864139 -168.923172 43.409309 -73.498886 106.211075
35 105.572853 -4.139662 -10.864139 -168.923172 43.409309 -73.498886 106.211075
[L_mid_hand03]
34 104.641464 17.579376 -3.913581 -6.012627 17.808174 74.893669 106.179977
35 104.641464 17.579376 -3.913581 -6.012627 17.808174 74.893669 106.179977
[null_rope02_connect]
34 328.732849 0.000179 -0.000119 -12.773281 17.132620 95.291077 328.732849
35 328.732849 0.000179 -0.000119 -11.859375 16.273050 96.893867 328.732849
[Rope2_Seg01]
34 0.000146 0.000150 -0.000144 87.579300 78.938789 23.745842 0.000254
35 0.000149 0.000151 -0.000148 90.727127 78.464630 27.141703 0.000259
[Rope2_Seg02]
34 139.999741 -0.000060 -0.000119 -1.630951 16.073036 -5.150434 139.999756
35 139.999741 -0.000060 -0.000119 -1.742185 16.542322 -5.281442 139.999756
[Rope2_Seg03]
34 140.000107 0.000030 0.000000 -15.274656 33.223202 -6.520787 140.000107
35 140.000107 0.000030 0.000000 -12.090283 28.737734 -4.712714 140.000107
[Rope2_Seg04]
34 139.999802 0.000000 -0.000060 -100.927444 30.280790 -3.703611 139.999802
35 139.999802 0.000000 -0.000060 -58.681313 27.309551 -5.355530 139.999802
[Rope2_Seg05]
34 139.999985 -0.000060 0.000119 -85.730789 12.779949 7.836076 139.999985
35 139.999985 -0.000060 0.000119 -134.031387 17.977730 1.309877 139.999985
[Rope2_Seg06]
34 139.999893 -0.000030 -0.000119 -9.823349 -3.809615 5.093545 139.999893
35 139.999893 -0.000030 -0.000119 -4.354939 -6.147016 4.320521 139.999893
[Rope2_Seg07]
34 139.999893 0.000060 -0.000060 -1.694682 -2.843851 1.958601 139.999893
35 139.999893 0.000060 -0.000060 -0.390309 -3.618605 1.755810 139.999893
[Rope2_Seg09]
34 121.338966 0.000089 -0.000060 33.793236 -1.359788 -0.847141 121.338966
35 121.338966 0.000089 -0.000060 33.793236 -1.359788 -0.847141 121.338966
[R_mid_hand01]
34 104.680779 11.144459 -10.335981 -16.212063 45.237247 70.462852 105.778534
35 104.680779 11.144459 -10.335981 -16.212063 45.237247 70.462852 105.778534
[R_mid_hand02]
34 104.070427 2.443552 8.231699 49.067368 -67.749771 39.286453 104.424065
35 104.070427 2.443552 8.231699 49.067368 -67.749771 39.286453 104.424065
[R_mid_hand03]
34 106.028137 -11.221827 -5.996406 -177.101105 15.551026 -76.585571 106.788818
35 106.028137 -11.221827 -5.996406 -177.101105 15.551026 -76.585571 106.788818
[spine02]
34 129.756927 0.001550 0.000119 -0.405199 -4.039862 -2.123741 129.756927
35 129.756927 0.001550 0.000119 -0.368931 -4.042863 -2.636511 129.756927
[spine03]
34 78.614044 0.080924 -4.898987 1.434851 4.026783 9.755826 78.766579
35 78.614044 0.080898 -4.898987 1.457315 4.018465 10.076088 78.766579
[pelvis]
34 169.435242 0.051022 0.000000 -0.013987 -0.191167 0.486362 169.435257
35 169.435242 0.051022 0.000000 -0.017540 -0.191064 1.134291 169.435257
[null_rope03_connect]
34 -1.257226 -2.466202 137.391083 -172.749878 -16.232325 -99.396080 137.418976
35 -1.257226 -2.466202 137.391083 -172.739410 -15.830641 -99.795822 137.418976
[null_rope04_connect]
34 -1.259640 -2.480268 -137.844437 -172.749878 -16.232325 -99.396080 137.872513
35 -1.259640 -2.480268 -137.844437 -172.739410 -15.830641 -99.795822 137.872513
[Rope3_Seg01]
34 0.000000 0.000000 0.000000 35.693428 37.128262 -51.091492 0.000000
35 0.000000 0.000000 0.000000 35.561951 37.288189 -51.448921 0.000000
[Rope3_Seg02]
34 139.999924 -0.000119 0.000060 3.912665 2.486659 -11.824072 139.999924
35 139.999924 -0.000119 0.000060 4.071072 2.867231 -12.366202 139.999924
[Rope3_Seg03]
34 139.999924 -0.000119 0.000119 1.969179 3.561019 -35.477283 139.999924
35 139.999924 -0.000119 0.000119 1.701855 4.357437 -35.242172 139.999924
[Rope3_Seg04]
34 139.999924 0.000119 0.000000 -19.250175 3.113002 -49.941303 139.999924
35 139.999924 0.000119 0.000000 -18.502279 4.134729 -48.322971 139.999924
[Rope3_Seg05]
34 139.999924 -0.000238 0.000060 -25.217743 12.555468 -19.554144 139.999924
35 139.999924 -0.000238 0.000060 -25.059620 11.641572 -21.192608 139.999924
[Rope3_Seg06]
34 139.999893 -0.000119 -0.000060 -8.787127 6.901430 -4.589925 139.999893
35 139.999893 -0.000119 -0.000060 -8.850872 6.460203 -5.070902 139.999893
[Rope3_Seg07]
34 139.999771 0.000060 -0.000119 -3.911729 3.697804 -1.931905 139.999771
35 139.999771 0.000060 -0.000119 -4.003397 3.531862 -2.107291 139.999771
[Rope3_Seg08]
34 139.999985 -0.000060 0.000000 -1.785947 2.079840 -0.916297 139.999985
35 139.999985 -0.000060 0.000000 -1.856188 1.998637 -1.010254 139.999985
[Rope3_Seg09]
34 90.185997 -0.000179 -0.000060 89.793228 -1.359877 -0.847183 90.185997
35 90.185997 -0.000179 -0.000060 89.793228 -1.359877 -0.847183 90.185997
[R_rear_hand01]
34 103.366196 -6.073594 -10.757982 172.856537 -15.220671 -75.434441 104.101845
35 103.366196 -6.073594 -10.757982 172.856537 -15.220671 -75.434441 104.101845
[R_rear_hand02]
34 100.509819 12.039542 -7.992327 -12.874829 36.868488 72.167213 101.543350
35 100.509819 12.039542 -7.992327 -12.874829 36.868488 72.167213 101.543350
[R_rear_hand03]
34 101.539970 5.215704 5.435467 71.484581 -71.816628 21.513813 101.819031
35 101.539970 5.215704 5.435467 71.484581 -71.816628 21.513813 101.819031
[Rope4_Seg01]
34 0.000010 0.000002 -0.000009 -128.146378 -36.086357 -58.707943 0.000013
35 0.000010 0.000001 -0.000004 -127.709579 -36.937145 -60.298153 0.000011
[Rope4_Seg02]
34 139.999985 0.000060 0.000119 -6.507909 13.369467 -3.026341 139.999985
35 139.999985 0.000060 0.000119 -6.357224 12.529979 -3.397970 139.999985
[Rope4_Seg03]
34 139.999924 0.000000 -0.000238 -5.821323 25.895657 -3.370239 139.999924
35 139.999924 0.000000 -0.000238 -6.183042 24.248207 -4.367465 139.999924
[Rope4_Seg04]
34 139.999985 0.000000 0.000119 0.021630 27.878784 -2.301454 139.999985
35 139.999985 0.000000 0.000119 -0.930461 27.751770 -4.452456 139.999985
[Rope4_Seg05]
34 139.999802 -0.000060 -0.000119 5.106801 23.987368 1.198619 139.999802
35 139.999802 -0.000060 -0.000119 4.622482 23.997444 1.085848 139.999802
[Rope4_Seg06]
34 139.999924 0.000000 0.000060 21.215263 31.335466 1.380183 139.999924
35 139.999924 0.000000 0.000060 18.774158 31.973782 3.279046 139.999924
[Rope4_Seg07]
34 139.999802 0.000000 0.000000 35.803360 15.608950 -5.876961 139.999802
35 139.999802 0.000000 0.000000 36.677433 16.831417 -4.576019 139.999802
[Rope4_Seg08]
34 139.999924 0.000000 0.000119 20.455591 4.038057 -6.268517 139.999924
35 139.999924 0.000000 0.000119 23.231459 4.608036 -6.093856 139.999924
[Rope4_Seg09]
34 90.185791 0.000060 0.000060 -135.617828 2.228885 0.850567 90.185791
35 90.185791 0.000060 0.000060 -135.617828 2.228885 0.850567 90.185791
[L_rear_hand01]
34 101.696655 -8.392275 -7.654577 -12.874829 -36.868488 107.832764 102.329041
35 101.696655 -8.392275 -7.654577 -12.874829 -36.868488 107.832764 102.329041
[L_rear_hand02]
34 102.726799 -1.568258 5.773216 71.484581 71.816628 158.486160 102.900848
35 102.726799 -1.568258 5.773216 71.484581 71.816628 158.486160 102.900848
[L_rear_hand03]
34 104.552910 9.721220 -10.420293 -177.714203 -24.565960 -106.089035 105.519653
35 104.552910 9.721220 -10.420293 -177.714203 -24.565960 -106.089035 105.519653
